<svg xmlns="http://www.w3.org/2000/svg" viewBox="0 0 380 360" role="img" aria-label="Stylized wireless headphones">
  <defs>
    <linearGradient id="shell" x1="0" y1="0" x2="1" y2="1"><stop stop-color="#f2f2f2"/><stop offset=".5" stop-color="#a8a8aa"/><stop offset="1" stop-color="#55565a"/></linearGradient>
    <linearGradient id="band" x1="0" y1="0" x2="0" y2="1"><stop stop-color="#fff"/><stop offset="1" stop-color="#84858a"/></linearGradient>
    <filter id="blur"><feGaussianBlur stdDeviation="10"/></filter>
  </defs>
  <ellipse cx="190" cy="320" rx="113" ry="18" fill="#000" opacity=".35" filter="url(#blur)"/>
  <path d="M96 194C96 68 285 66 285 194l-27 6c0-94-134-94-134 0z" fill="url(#band)" stroke="#fafafa" stroke-width="10"/>
  <path d="M100 186c-21 3-35 26-31 57 4 31 23 50 45 47l23-5V190z" fill="url(#shell)"/>
  <path d="M280 186c21 3 35 26 31 57-4 31-23 50-45 47l-23-5V190z" fill="url(#shell)"/>
  <ellipse cx="111" cy="239" rx="24" ry="41" fill="#33343a"/><ellipse cx="269" cy="239" rx="24" ry="41" fill="#33343a"/>
  <ellipse cx="111" cy="239" rx="15" ry="29" fill="#171719"/><ellipse cx="269" cy="239" rx="15" ry="29" fill="#171719"/>
  <path d="M96 194c-21 3-35 26-31 57" fill="none" stroke="#fff" stroke-opacity=".55" stroke-width="5" stroke-linecap="round"/>
  <path d="M280 186c21 3 35 26 31 57" fill="none" stroke="#fff" stroke-opacity=".55" stroke-width="5" stroke-linecap="round"/>
</svg>
